<svg width="19" height="14" viewBox="0 0 19 14" fill="none" xmlns="http://www.w3.org/2000/svg">
<path d="M18.2368 2.17392L7.23679 13.1739C7.17294 13.2378 7.09712 13.2886 7.01365 13.3232C6.93019 13.3577 6.84073 13.3756 6.75038 13.3756C6.66003 13.3756 6.57057 13.3577 6.48711 13.3232C6.40365 13.2886 6.32783 13.2378 6.26398 13.1739L1.45148 8.36142C1.32247 8.23242 1.25 8.05745 1.25 7.87502C1.25 7.69258 1.32247 7.51761 1.45148 7.38861C1.58048 7.25961 1.75544 7.18713 1.93788 7.18713C2.12032 7.18713 2.29529 7.25961 2.42429 7.38861L6.75038 11.7156L17.264 1.20111C17.393 1.07211 17.5679 0.999634 17.7504 0.999634C17.9328 0.999634 18.1078 1.07211 18.2368 1.20111C18.3658 1.33011 18.4383 1.50508 18.4383 1.68752C18.4383 1.86995 18.3658 2.04492 18.2368 2.17392Z" fill="#13B3F0" stroke="#13B3F0"/>
</svg>
