<svg width="32" height="34" viewBox="0 0 32 34" fill="none" xmlns="http://www.w3.org/2000/svg">
<path d="M15.834 0C15.0371 0 14.2452 0.274616 13.563 0.776769L11.4515 2.28846L9.01863 2.61538H8.9791L8.93957 2.65592C8.14166 2.84072 7.41116 3.25365 6.83275 3.84685C6.25434 4.44005 5.8517 5.18923 5.67151 6.00754L5.63326 6.04808V6.08862L5.31449 8.62292L3.84048 10.5845L3.79968 10.625V10.6655C2.90839 12.1262 2.86886 14.0119 3.84048 15.4059L5.35402 17.5715L5.75312 19.8207L1.6486 26.2349L0.333984 28.2383H6.43019L7.9042 31.7521L8.82099 34L10.1356 31.9561L14.1598 25.7445C15.2411 26.1996 16.4613 26.2415 17.5082 25.7445L21.5324 31.9561L22.847 34L23.7638 31.7521L25.2378 28.2383H31.334L30.0194 26.2349L26.0347 20.0247L26.3535 17.5728L27.8275 15.4072L27.8683 15.3667V15.3262C28.7596 13.8655 28.7991 12.0203 27.8275 10.6263L26.3535 8.45946L25.8753 6.00754H25.9148C25.9097 5.97615 25.8804 5.95523 25.8753 5.92515C25.6458 4.21469 24.3261 2.82592 22.6481 2.61538H22.6073L20.2165 2.28846L18.1049 0.776769C17.4454 0.281308 16.6514 0.00971428 15.834 0ZM15.834 2.65592C16.1273 2.65592 16.4167 2.74746 16.6309 2.90177L18.9019 4.57692L19.1811 4.78092L19.4999 4.82277L22.2898 5.23077H22.328C22.9018 5.29615 23.2996 5.70546 23.3647 6.29392V6.375L23.8836 9.27677L23.9219 9.56315L24.1221 9.80769L25.7555 12.1367C26.0602 12.5708 26.0997 13.3071 25.7159 13.9348L23.9232 16.5096L23.8824 16.8365L23.4845 19.6978V19.737C23.4633 19.9414 23.3951 20.1377 23.2856 20.3098L23.2053 20.3516V20.3908C23.0158 20.6243 22.744 20.7714 22.4492 20.8002H22.3688L19.4603 21.3324L19.1416 21.3716L18.9019 21.5769L16.6309 23.2521C16.2076 23.5646 15.4502 23.6052 14.8381 23.2115L12.7661 21.5769L12.5264 21.3729L12.1681 21.3311L9.3782 20.9231H9.33995C9.15965 20.9068 8.98583 20.8462 8.83315 20.7465C8.68046 20.6468 8.5534 20.5109 8.46269 20.3503C8.37795 20.1995 8.32375 20.0327 8.3033 19.8599V19.7788L7.78561 16.796L7.74481 16.4691L7.5459 16.2232L5.91251 13.8942C5.60776 13.4601 5.56823 12.6833 5.95203 12.0556L7.5459 9.93062L7.74481 9.68477L7.78434 9.31731L8.14391 6.579C8.14901 6.55938 8.17834 6.55938 8.18344 6.53846C8.26293 6.22367 8.42308 5.93641 8.64729 5.70647C8.87149 5.47654 9.15159 5.31229 9.45853 5.23077C9.47893 5.22554 9.47893 5.19546 9.49806 5.19023L12.1681 4.82146L12.4869 4.78223L12.7661 4.57692L15.0371 2.90177C15.2513 2.74877 15.5407 2.65592 15.834 2.65592ZM24.6398 22.5577L26.5932 25.6229H23.5228L23.204 26.4402L22.328 28.5234L19.6185 24.2734L20.2152 23.8248L22.7271 23.375V23.4155C22.7565 23.4103 22.7756 23.3802 22.8062 23.375C23.4773 23.2757 24.1113 22.9934 24.6398 22.5577ZM7.02821 22.5982C7.58188 23.1145 8.27745 23.4428 9.0199 23.5385H9.05943L11.491 23.8654L12.0482 24.3152L9.33867 28.5234L8.46269 26.4402L8.14391 25.6229H5.07605L7.02821 22.5982Z" fill="#13B3F0"/>
</svg>
