<svg width="25" height="30" viewBox="0 0 25 30" fill="none" xmlns="http://www.w3.org/2000/svg">
<path d="M12.3331 2.23579C12.5816 2.23579 12.861 2.32895 13.0474 2.54632L22.1768 12.5763C22.7358 13.1974 22.27 14.16 21.4937 14.16C21.4316 14.16 21.3695 14.16 21.3074 14.1289L15.6558 13.0111V26.3016C15.6558 26.8295 15.221 27.2642 14.6931 27.2642H9.91104C9.38315 27.2642 8.9484 26.8295 8.9484 26.3016V13.0111L3.42104 14.1289C3.35893 14.1289 3.29683 14.16 3.23473 14.16C2.45841 14.16 1.96157 13.1974 2.55157 12.5763L11.681 2.54632C11.8053 2.32895 12.0847 2.23579 12.3331 2.23579ZM12.3331 0C11.4326 0 10.5942 0.372628 9.97315 1.02473L0.843671 11.0547C-0.0258025 11.9863 -0.243167 13.3216 0.284728 14.4705C0.78157 15.6195 1.93051 16.3647 3.17262 16.3647C3.38999 16.3647 3.60736 16.3337 3.79367 16.3026L6.65052 15.7437V26.3326C6.65052 28.0716 8.07894 29.5 9.81789 29.5H14.6C16.3389 29.5 17.7674 28.0716 17.7674 26.3326V15.7437L20.7795 16.3337C20.9968 16.3647 21.1831 16.3958 21.4005 16.3958C22.6426 16.3958 23.7916 15.6505 24.2884 14.5016C24.8163 13.3216 24.5989 12.0174 23.7295 11.0858L14.6 1.0558C14.0721 0.372639 13.2337 0 12.3331 0Z" fill="#13B3F0"/>
</svg>
