<svg width="37" height="37" viewBox="0 0 37 37" fill="none" xmlns="http://www.w3.org/2000/svg">
<path d="M24.5242 26.1037C25.3925 26.1037 26.103 25.3932 26.103 24.5249V21.3672C26.103 20.4988 25.3925 19.7883 24.5242 19.7883C23.6558 19.7883 22.9453 20.4988 22.9453 21.3672V24.5249C22.9453 25.3932 23.6558 26.1037 24.5242 26.1037Z" fill="#13B3F0" stroke="white" stroke-width="0.5"/>
<path d="M30.8404 15.0519C29.9721 15.0519 29.2616 15.7624 29.2616 16.6308V29.2616H7.1577V7.1577H19.7885C20.6569 7.1577 21.3673 6.44722 21.3673 5.57885C21.3673 4.71048 20.6569 4 19.7885 4H7.1577C5.42096 4 4 5.42096 4 7.1577V29.2616C4 30.9983 5.42096 32.4193 7.1577 32.4193H29.2616C30.9983 32.4193 32.4193 30.9983 32.4193 29.2616V16.6308C32.4193 15.7624 31.7088 15.0519 30.8404 15.0519Z" fill="#13B3F0" stroke="white" stroke-width="0.5"/>
<path d="M10.3145 16.6308V24.525C10.3145 25.3934 11.0249 26.1039 11.8933 26.1039C12.7617 26.1039 13.4722 25.3934 13.4722 24.525V16.6308C13.4722 15.7624 12.7617 15.0519 11.8933 15.0519C11.0249 15.0519 10.3145 15.7624 10.3145 16.6308ZM16.6298 11.8942V24.525C16.6298 25.3934 17.3403 26.1039 18.2087 26.1039C19.0771 26.1039 19.7875 25.3934 19.7875 24.525V11.8942C19.7875 11.0259 19.0771 10.3154 18.2087 10.3154C17.3403 10.3154 16.6298 11.0259 16.6298 11.8942ZM24.5241 10.3154H26.1029V11.8942C26.1029 12.7626 26.8134 13.4731 27.6818 13.4731C28.5502 13.4731 29.2606 12.7626 29.2606 11.8942V10.3154H30.8395C31.7079 10.3154 32.4183 9.60491 32.4183 8.73655C32.4183 7.86818 31.7079 7.1577 30.8395 7.1577H29.2606V5.57885C29.2606 4.71048 28.5502 4 27.6818 4C26.8134 4 26.1029 4.71048 26.1029 5.57885V7.1577H24.5241C23.6557 7.1577 22.9452 7.86818 22.9452 8.73655C22.9452 9.60491 23.6557 10.3154 24.5241 10.3154Z" fill="#13B3F0" stroke="white" stroke-width="0.5"/>
</svg>
