<svg width="33" height="32" viewBox="0 0 33 32" fill="none" xmlns="http://www.w3.org/2000/svg">
<path d="M16.3182 1.37939C14.6738 1.37939 13.3359 2.70315 13.3359 4.33028C13.3359 5.74481 14.3486 6.92724 15.6923 7.21336V30.8859H16.9442V7.21451C18.289 6.92839 19.3005 5.74596 19.3005 4.33143C19.3005 2.7043 17.9626 1.37939 16.3182 1.37939Z" fill="#13B3F0" stroke="#13B3F0"/>
<path d="M8.00471 11.1089C9.34952 10.8227 10.361 9.64032 10.361 8.22578C10.361 6.59866 9.02319 5.2749 7.37876 5.2749C5.73433 5.2749 4.39648 6.59866 4.39648 8.22578C4.39648 9.64032 5.40916 10.8227 6.75281 11.1089V13.7185L11.0474 17.9678V30.8848H12.2993V17.4542L8.00471 13.2048V11.1089ZM5.64839 8.22578C5.64839 7.28238 6.42415 6.51363 7.37876 6.51363C8.33336 6.51363 9.10913 7.28238 9.10913 8.22578C9.10913 9.16919 8.33336 9.93794 7.37876 9.93794C6.42415 9.93794 5.64839 9.16919 5.64839 8.22578Z" fill="#13B3F0" stroke="#13B3F0"/>
<path d="M4.50503 21.8883C5.887 21.632 6.93916 20.4335 6.93916 18.9914C6.93916 17.3643 5.60131 16.0405 3.95688 16.0405C2.31245 16.0405 0.974609 17.3643 0.974609 18.9914C0.974609 20.3772 1.95012 21.5367 3.25428 21.8515V24.6967L6.40379 27.8142V30.8857H7.65569V27.3005L4.50619 24.183L4.50503 21.8883ZM2.22535 18.9914C2.22535 18.048 3.00112 17.2793 3.95572 17.2793C4.91033 17.2793 5.68609 18.048 5.68609 18.9914C5.68609 19.9348 4.91033 20.7036 3.95572 20.7036C3.00112 20.7036 2.22535 19.9348 2.22535 18.9914Z" fill="#13B3F0" stroke="#13B3F0"/>
<path d="M25.8863 11.1089C27.2311 10.8227 28.2426 9.64032 28.2426 8.22578C28.2426 6.59866 26.9048 5.2749 25.2604 5.2749C23.6159 5.2749 22.2781 6.59866 22.2781 8.22578C22.2781 9.64032 23.2908 10.8227 24.6344 11.1089V13.2048L20.3398 17.4542V30.8848H21.5917V17.9678L25.8863 13.7185V11.1089ZM23.53 8.22578C23.53 7.28238 24.3058 6.51363 25.2604 6.51363C26.215 6.51363 26.9907 7.28238 26.9907 8.22578C26.9907 9.16919 26.215 9.93794 25.2604 9.93794C24.3058 9.93794 23.53 9.16919 23.53 8.22578Z" fill="#13B3F0" stroke="#13B3F0"/>
<path d="M31.6643 18.9914C31.6643 17.3643 30.3265 16.0405 28.682 16.0405C27.0376 16.0405 25.6997 17.3643 25.6997 18.9914C25.6997 20.4324 26.7507 21.6309 28.1339 21.8883V24.183L24.9844 27.3005V30.8857H26.2363V27.8142L29.3858 24.6967V21.8515C30.6899 21.5367 31.6643 20.3784 31.6643 18.9914ZM28.682 20.7036C27.7274 20.7036 26.9517 19.9348 26.9517 18.9914C26.9517 18.048 27.7274 17.2793 28.682 17.2793C29.6366 17.2793 30.4124 18.048 30.4124 18.9914C30.4124 19.9348 29.6366 20.7036 28.682 20.7036Z" fill="#13B3F0" stroke="#13B3F0"/>
</svg>
