<svg width="21" height="28" viewBox="0 0 21 28" fill="none" xmlns="http://www.w3.org/2000/svg">
<path d="M10.5001 0.134766C5.10823 0.134766 0.72168 4.52132 0.72168 9.91309C0.72168 16.6044 9.47237 26.4278 9.84494 26.8427C10.1949 27.2324 10.8059 27.2317 11.1552 26.8427C11.5277 26.4278 20.2784 16.6044 20.2784 9.91309C20.2783 4.52132 15.8918 0.134766 10.5001 0.134766ZM10.5001 14.8328C7.7873 14.8328 5.58036 12.6259 5.58036 9.91309C5.58036 7.20033 7.78735 4.99339 10.5001 4.99339C13.2128 4.99339 15.4197 7.20038 15.4197 9.91314C15.4197 12.6259 13.2128 14.8328 10.5001 14.8328Z" fill="#666666"/>
</svg>
