<svg width="50" height="38" viewBox="0 0 50 38" fill="none" xmlns="http://www.w3.org/2000/svg">
<path d="M31.7603 26.4092H18.2402V3.2793H31.7603V26.4092Z" fill="#6C6BBD"/>
<path d="M19.0982 14.8451C19.0982 10.1531 21.4059 5.97357 24.9996 3.28013C22.3716 1.31055 19.055 0.134975 15.4505 0.134975C6.9172 0.134975 0 6.72081 0 14.8451C0 22.9693 6.9172 29.5552 15.4505 29.5552C19.055 29.5552 22.3716 28.3796 24.9996 26.41C21.4059 23.7166 19.0982 19.5371 19.0982 14.8451Z" fill="#D32011"/>
<path d="M49.9996 14.8451C49.9996 22.9693 43.0824 29.5552 34.5491 29.5552C30.9446 29.5552 27.628 28.3796 24.999 26.41C28.5937 23.7166 30.9014 19.5371 30.9014 14.8451C30.9014 10.1531 28.5937 5.97357 24.999 3.28013C27.628 1.31055 30.9446 0.134975 34.5491 0.134975C43.0824 0.134975 49.9996 6.72081 49.9996 14.8451Z" fill="#0099DF"/>
<path d="M36.3348 32.9452C36.5145 32.9452 36.7729 32.9779 36.9704 33.0518L36.6953 33.8523C36.5067 33.7785 36.3181 33.7541 36.1373 33.7541C35.5537 33.7541 35.262 34.1133 35.262 34.7586V36.9489H34.3689V33.0434H35.2531V33.5175C35.485 33.1743 35.82 32.9452 36.3348 32.9452ZM33.0358 33.8196H31.5769V35.5844C31.5769 35.9762 31.7223 36.2381 32.1693 36.2381C32.4012 36.2381 32.6929 36.1642 32.9582 36.0174L33.2156 36.744C32.9326 36.932 32.4866 37.0471 32.1005 37.0471C31.0444 37.0471 30.676 36.5074 30.676 35.6003V33.8196H29.8429V33.0434H30.676V31.8584H31.5769V33.0434H33.0358V33.8196ZM21.6113 34.6529C21.7066 34.0889 22.0661 33.7046 22.7018 33.7046C23.2765 33.7046 23.6459 34.0478 23.7402 34.6529H21.6113ZM24.6676 34.9961C24.6587 33.7785 23.8689 32.9452 22.7185 32.9452C21.517 32.9452 20.676 33.7785 20.676 34.9961C20.676 36.2372 21.5513 37.0461 22.7794 37.0461C23.3973 37.0461 23.9632 36.8993 24.4613 36.499L24.0231 35.8696C23.6802 36.1315 23.2421 36.2783 22.8304 36.2783C22.2557 36.2783 21.7321 36.0249 21.6034 35.3225H24.6499C24.6587 35.2159 24.6676 35.1102 24.6676 34.9961ZM28.5894 34.0403C28.3408 33.8926 27.8349 33.7046 27.3113 33.7046C26.822 33.7046 26.5302 33.8767 26.5302 34.1628C26.5302 34.4238 26.8387 34.4976 27.2248 34.5463L27.6453 34.6033C28.5383 34.7268 29.0786 35.0859 29.0786 35.7723C29.0786 36.5158 28.3919 37.0471 27.2081 37.0471C26.5381 37.0471 25.9202 36.8834 25.4309 36.5402L25.8514 35.878C26.152 36.0987 26.599 36.2867 27.2169 36.2867C27.826 36.2867 28.1522 36.1156 28.1522 35.8126C28.1522 35.5928 27.9204 35.4693 27.4311 35.4048L27.0106 35.3478C26.0921 35.2243 25.594 34.8324 25.594 34.1956C25.594 33.4193 26.264 32.9452 27.3024 32.9452C27.9547 32.9452 28.5471 33.0845 28.9755 33.3539L28.5894 34.0403ZM39.5974 33.7523C39.4137 33.7523 39.2437 33.7831 39.0855 33.8439C38.9283 33.9056 38.7918 33.9917 38.6768 34.102C38.5619 34.2124 38.4715 34.3452 38.4057 34.4995C38.3399 34.6538 38.3075 34.824 38.3075 35.0092C38.3075 35.1953 38.3399 35.3646 38.4057 35.5189C38.4715 35.6732 38.5619 35.806 38.6768 35.9164C38.7918 36.0267 38.9283 36.1128 39.0855 36.1745C39.2437 36.2362 39.4137 36.2661 39.5974 36.2661C39.7811 36.2661 39.952 36.2362 40.1092 36.1745C40.2674 36.1128 40.4049 36.0267 40.5199 35.9164C40.6368 35.806 40.7271 35.6732 40.794 35.5189C40.8598 35.3646 40.8922 35.1953 40.8922 35.0092C40.8922 34.824 40.8598 34.6538 40.794 34.4995C40.7271 34.3452 40.6368 34.2124 40.5199 34.102C40.4049 33.9917 40.2674 33.9056 40.1092 33.8439C39.952 33.7831 39.7811 33.7523 39.5974 33.7523ZM39.5974 32.9452C39.9157 32.9452 40.2104 32.9975 40.4815 33.1032C40.7527 33.208 40.9875 33.3529 41.185 33.5372C41.3834 33.7214 41.5376 33.9393 41.6496 34.19C41.7616 34.4415 41.8176 34.7146 41.8176 35.0092C41.8176 35.3038 41.7616 35.5769 41.6496 35.8285C41.5376 36.0791 41.3834 36.2979 41.185 36.4822C40.9875 36.6664 40.7527 36.8104 40.4815 36.9161C40.2104 37.0209 39.9157 37.0732 39.5974 37.0732C39.2791 37.0732 38.9843 37.0209 38.7132 36.9161C38.442 36.8104 38.2092 36.6664 38.0127 36.4822C37.8162 36.2979 37.662 36.0791 37.55 35.8285C37.438 35.5769 37.382 35.3038 37.382 35.0092C37.382 34.7146 37.438 34.4415 37.55 34.19C37.662 33.9393 37.8162 33.7214 38.0127 33.5372C38.2092 33.3529 38.442 33.208 38.7132 33.1032C38.9843 32.9975 39.2791 32.9452 39.5974 32.9452ZM16.3966 34.9961C16.3966 34.3097 16.8691 33.7457 17.6413 33.7457C18.3791 33.7457 18.8772 34.2853 18.8772 34.9961C18.8772 35.7069 18.3791 36.2456 17.6413 36.2456C16.8691 36.2456 16.3966 35.6826 16.3966 34.9961ZM19.7182 34.9961V33.0434H18.8261V33.5175C18.5422 33.1659 18.1139 32.9452 17.5303 32.9452C16.3799 32.9452 15.479 33.8028 15.479 34.9961C15.479 36.1885 16.3799 37.0471 17.5303 37.0471C18.1139 37.0471 18.5422 36.8263 18.8261 36.4747V36.9489H19.7182V34.9961ZM14.6892 36.9489V34.4976C14.6892 33.5746 14.0712 32.9536 13.076 32.9452C12.5524 32.9368 12.0111 33.092 11.6338 33.64C11.3509 33.207 10.9039 32.9452 10.2771 32.9452C9.83995 32.9452 9.41063 33.0677 9.07563 33.525V33.0434H8.18359V36.9489H9.08447V34.7838C9.08447 34.1058 9.4794 33.7457 10.0885 33.7457C10.6809 33.7457 10.9815 34.1133 10.9815 34.7754V36.9489H11.8824V34.7838C11.8824 34.1058 12.295 33.7457 12.8864 33.7457C13.4965 33.7457 13.7883 34.1133 13.7883 34.7754V36.9489H14.6892Z" fill="black"/>
</svg>
