<svg width="42" height="32" viewBox="0 0 42 32" fill="none" xmlns="http://www.w3.org/2000/svg">
<path d="M26.3677 22.4743H15.1432V3.27148H26.3677V22.4743Z" fill="#6C6BBD"/>
<path d="M15.8557 12.8731C15.8557 8.97771 17.7716 5.50781 20.7551 3.27167C18.5733 1.63649 15.8198 0.660511 12.8273 0.660511C5.74278 0.660511 0 6.12819 0 12.8731C0 19.618 5.74278 25.0857 12.8273 25.0857C15.8198 25.0857 18.5733 24.1097 20.7551 22.4745C17.7716 20.2384 15.8557 16.7685 15.8557 12.8731Z" fill="#D32011"/>
<path d="M41.511 12.8731C41.511 19.618 35.7682 25.0857 28.6837 25.0857C25.6912 25.0857 22.9377 24.1097 20.7551 22.4745C23.7394 20.2384 25.6553 16.7685 25.6553 12.8731C25.6553 8.97771 23.7394 5.50781 20.7551 3.27167C22.9377 1.63649 25.6912 0.660511 28.6837 0.660511C35.7682 0.660511 41.511 6.12819 41.511 12.8731Z" fill="#0099DF"/>
<path d="M30.1656 27.9004C30.3148 27.9004 30.5293 27.9276 30.6933 27.989L30.4649 28.6536C30.3083 28.5922 30.1517 28.5721 30.0016 28.5721C29.5172 28.5721 29.2749 28.8702 29.2749 29.406V31.2244H28.5335V27.982H29.2676V28.3756C29.4601 28.0907 29.7382 27.9004 30.1656 27.9004ZM27.4267 28.6264H26.2155V30.0915C26.2155 30.4169 26.3362 30.6343 26.7073 30.6343C26.8998 30.6343 27.1421 30.5729 27.3623 30.451L27.576 31.0543C27.3411 31.2104 26.9708 31.3059 26.6502 31.3059C25.7735 31.3059 25.4676 30.8579 25.4676 30.1047V28.6264H24.776V27.982H25.4676V26.9982H26.2155V27.982H27.4267V28.6264ZM17.9419 29.3182C18.021 28.85 18.3195 28.5309 18.8472 28.5309C19.3243 28.5309 19.631 28.8159 19.7093 29.3182H17.9419ZM20.4793 29.6032C20.4719 28.5922 19.8162 27.9004 18.8611 27.9004C17.8636 27.9004 17.1654 28.5922 17.1654 29.6032C17.1654 30.6335 17.8921 31.3051 18.9116 31.3051C19.4247 31.3051 19.8945 31.1832 20.308 30.8509L19.9442 30.3284C19.6596 30.5458 19.2958 30.6677 18.9541 30.6677C18.4769 30.6677 18.0422 30.4572 17.9353 29.8741H20.4646C20.4719 29.7856 20.4793 29.6979 20.4793 29.6032ZM23.7352 28.8096C23.5289 28.687 23.1088 28.5309 22.6741 28.5309C22.2679 28.5309 22.0257 28.6738 22.0257 28.9114C22.0257 29.128 22.2818 29.1893 22.6023 29.2297L22.9514 29.2771C23.6928 29.3796 24.1414 29.6777 24.1414 30.2476C24.1414 30.8649 23.5713 31.3059 22.5885 31.3059C22.0322 31.3059 21.5192 31.17 21.113 30.8851L21.4621 30.3353C21.7117 30.5186 22.0828 30.6747 22.5958 30.6747C23.1015 30.6747 23.3723 30.5326 23.3723 30.281C23.3723 30.0985 23.1798 29.996 22.7736 29.9425L22.4245 29.8951C21.6619 29.7926 21.2484 29.4673 21.2484 28.9385C21.2484 28.2941 21.8046 27.9004 22.6668 27.9004C23.2083 27.9004 23.7001 28.0161 24.0558 28.2397L23.7352 28.8096ZM32.8742 28.5705C32.7217 28.5705 32.5806 28.5961 32.4493 28.6466C32.3188 28.6978 32.2054 28.7693 32.11 28.8609C32.0146 28.9525 31.9395 29.0628 31.8849 29.1909C31.8303 29.319 31.8033 29.4603 31.8033 29.614C31.8033 29.7685 31.8303 29.9091 31.8849 30.0372C31.9395 30.1653 32.0146 30.2756 32.11 30.3672C32.2054 30.4588 32.3188 30.5302 32.4493 30.5815C32.5806 30.6327 32.7217 30.6576 32.8742 30.6576C33.0268 30.6576 33.1687 30.6327 33.2992 30.5815C33.4305 30.5302 33.5447 30.4588 33.6401 30.3672C33.7372 30.2756 33.8122 30.1653 33.8677 30.0372C33.9223 29.9091 33.9492 29.7685 33.9492 29.614C33.9492 29.4603 33.9223 29.319 33.8677 29.1909C33.8122 29.0628 33.7372 28.9525 33.6401 28.8609C33.5447 28.7693 33.4305 28.6978 33.2992 28.6466C33.1687 28.5961 33.0268 28.5705 32.8742 28.5705ZM32.8742 27.9004C33.1385 27.9004 33.3832 27.9439 33.6083 28.0317C33.8334 28.1186 34.0284 28.239 34.1923 28.3919C34.357 28.5449 34.4851 28.7258 34.5781 28.9339C34.6711 29.1427 34.7176 29.3695 34.7176 29.614C34.7176 29.8586 34.6711 30.0853 34.5781 30.2942C34.4851 30.5023 34.357 30.684 34.1923 30.8369C34.0284 30.9899 33.8334 31.1095 33.6083 31.1972C33.3832 31.2842 33.1385 31.3276 32.8742 31.3276C32.61 31.3276 32.3653 31.2842 32.1402 31.1972C31.9151 31.1095 31.7218 30.9899 31.5587 30.8369C31.3955 30.684 31.2675 30.5023 31.1745 30.2942C31.0815 30.0853 31.035 29.8586 31.035 29.614C31.035 29.3695 31.0815 29.1427 31.1745 28.9339C31.2675 28.7258 31.3955 28.5449 31.5587 28.3919C31.7218 28.239 31.9151 28.1186 32.1402 28.0317C32.3653 27.9439 32.61 27.9004 32.8742 27.9004ZM13.6126 29.6032C13.6126 29.0333 14.0049 28.5651 14.6459 28.5651C15.2585 28.5651 15.672 29.0131 15.672 29.6032C15.672 30.1933 15.2585 30.6405 14.6459 30.6405C14.0049 30.6405 13.6126 30.1731 13.6126 29.6032ZM16.3702 29.6032V27.982H15.6296V28.3756C15.3939 28.0837 15.0383 27.9004 14.5538 27.9004C13.5987 27.9004 12.8508 28.6124 12.8508 29.6032C12.8508 30.5931 13.5987 31.3059 14.5538 31.3059C15.0383 31.3059 15.3939 31.1227 15.6296 30.8307V31.2244H16.3702V29.6032ZM12.195 31.2244V29.1893C12.195 28.423 11.682 27.9074 10.8558 27.9004C10.421 27.8934 9.97163 28.0223 9.65843 28.4773C9.42353 28.1178 9.05242 27.9004 8.53206 27.9004C8.1691 27.9004 7.81268 28.0022 7.53455 28.3818V27.982H6.79397V31.2244H7.54189V29.4269C7.54189 28.864 7.86977 28.5651 8.37546 28.5651C8.86728 28.5651 9.11686 28.8702 9.11686 29.4199V31.2244H9.86478V29.4269C9.86478 28.864 10.2073 28.5651 10.6983 28.5651C11.2048 28.5651 11.4471 28.8702 11.4471 29.4199V31.2244H12.195Z" fill="white"/>
</svg>
