<svg width="24" height="20" viewBox="0 0 24 20" fill="none" xmlns="http://www.w3.org/2000/svg">
<path d="M0.50114 1.5952C3.79505 4.38478 9.57483 9.2925 11.2736 10.8227C11.5016 11.0293 11.7462 11.1343 12.0001 11.1343C12.2535 11.1343 12.4977 11.0303 12.7253 10.8247C14.4255 9.29297 20.2052 4.38478 23.4992 1.5952C23.7043 1.42186 23.7355 1.11717 23.5695 0.90525C23.1857 0.415547 22.6134 0.134766 22.0001 0.134766H2.00016C1.38689 0.134766 0.814593 0.415547 0.430828 0.905297C0.264796 1.11717 0.296062 1.42186 0.50114 1.5952Z" fill="#666666"/>
<path d="M23.71 4.03001C23.5327 3.94751 23.3242 3.97629 23.1768 4.10229C19.5239 7.19895 14.8618 11.1682 13.395 12.49C12.5717 13.2331 11.4292 13.2331 10.604 12.489C9.0405 11.0803 3.80512 6.62961 0.823219 4.10225C0.674766 3.97625 0.465797 3.94845 0.290016 4.02997C0.113297 4.11204 0 4.28881 0 4.48362V17.0578C0 18.1609 0.896953 19.0579 2.00002 19.0579H22C23.103 19.0579 24 18.1609 24 17.0578V4.48362C24 4.28881 23.8867 4.11158 23.71 4.03001Z" fill="#666666"/>
</svg>
