<svg width="51" height="38" viewBox="0 0 51 38" fill="none" xmlns="http://www.w3.org/2000/svg">
<path d="M9.44748 36.9315V34.4929C9.44748 33.5581 8.85171 32.9485 7.83038 32.9485C7.31972 32.9485 6.7665 33.1111 6.3835 33.6394C6.08562 33.1923 5.66006 32.9485 5.02173 32.9485C4.59618 32.9485 4.17063 33.0704 3.83019 33.5175V33.0298H2.93652V36.9315H3.83019V34.7774C3.83019 34.0865 4.21318 33.7613 4.80895 33.7613C5.40473 33.7613 5.70262 34.1271 5.70262 34.7774V36.9315H6.59628V34.7774C6.59628 34.0865 7.02183 33.7613 7.57505 33.7613C8.17082 33.7613 8.46871 34.1271 8.46871 34.7774V36.9315H9.44748V36.9315ZM22.6822 33.0298H21.2353V31.8511H20.3416V33.0298H19.5331V33.802H20.3416V35.5903C20.3416 36.4844 20.7246 37.0128 21.746 37.0128C22.1289 37.0128 22.5545 36.8908 22.8524 36.7283L22.5971 35.9967C22.3417 36.1593 22.0438 36.1999 21.8311 36.1999C21.4055 36.1999 21.2353 35.9561 21.2353 35.5496V33.802H22.6822V33.0298V33.0298ZM30.257 32.9485C29.7463 32.9485 29.4059 33.1923 29.1931 33.5175V33.0298H28.2995V36.9315H29.1931V34.7368C29.1931 34.0865 29.491 33.7207 30.0442 33.7207C30.2145 33.7207 30.4272 33.7613 30.5975 33.802L30.8528 32.9891C30.6826 32.9485 30.4272 32.9485 30.257 32.9485V32.9485ZM18.8096 33.3549C18.3841 33.0704 17.7883 32.9485 17.15 32.9485C16.1287 32.9485 15.4478 33.4362 15.4478 34.2084C15.4478 34.8587 15.9584 35.2245 16.8521 35.3464L17.2776 35.387C17.7458 35.4683 18.0011 35.5903 18.0011 35.7935C18.0011 36.078 17.6606 36.2812 17.0649 36.2812C16.4691 36.2812 16.001 36.078 15.7031 35.8748L15.2776 36.525C15.7457 36.8502 16.384 37.0128 17.0223 37.0128C18.2139 37.0128 18.8948 36.4844 18.8948 35.7528C18.8948 35.0619 18.3415 34.6961 17.4904 34.5742L17.0649 34.5336C16.6819 34.4929 16.384 34.4116 16.384 34.1678C16.384 33.8833 16.6819 33.7207 17.15 33.7207C17.6606 33.7207 18.1713 33.9239 18.4266 34.0458L18.8096 33.3549V33.3549ZM42.5555 32.9485C42.0448 32.9485 41.7044 33.1923 41.4916 33.5175V33.0298H40.598V36.9315H41.4916V34.7368C41.4916 34.0865 41.7895 33.7207 42.3427 33.7207C42.5129 33.7207 42.7257 33.7613 42.8959 33.802L43.1513 32.9891C42.981 32.9485 42.7257 32.9485 42.5555 32.9485V32.9485ZM31.1507 34.9806C31.1507 36.1593 32.0018 37.0128 33.321 37.0128C33.9168 37.0128 34.3423 36.8908 34.7679 36.5657L34.3423 35.8748C34.0019 36.1186 33.6614 36.2405 33.2784 36.2405C32.555 36.2405 32.0443 35.7528 32.0443 34.9806C32.0443 34.249 32.555 33.7613 33.2784 33.7207C33.6614 33.7207 34.0019 33.8426 34.3423 34.0865L34.7679 33.3956C34.3423 33.0704 33.9168 32.9485 33.321 32.9485C32.0018 32.9485 31.1507 33.802 31.1507 34.9806V34.9806ZM39.4064 34.9806V33.0298H38.5127V33.5175C38.2149 33.1517 37.7893 32.9485 37.2361 32.9485C36.0871 32.9485 35.1934 33.802 35.1934 34.9806C35.1934 36.1593 36.0871 37.0128 37.2361 37.0128C37.8319 37.0128 38.2574 36.8095 38.5127 36.4438V36.9315H39.4064V34.9806ZM36.1296 34.9806C36.1296 34.2897 36.5978 33.7207 37.3637 33.7207C38.0872 33.7207 38.5978 34.249 38.5978 34.9806C38.5978 35.6715 38.0872 36.2405 37.3637 36.2405C36.5978 36.1999 36.1296 35.6715 36.1296 34.9806ZM25.4483 32.9485C24.2567 32.9485 23.4056 33.7613 23.4056 34.9806C23.4056 36.1999 24.2567 37.0128 25.4908 37.0128C26.0866 37.0128 26.6824 36.8502 27.1505 36.4844L26.7249 35.8748C26.3845 36.1186 25.9589 36.2812 25.5334 36.2812C24.9802 36.2812 24.4269 36.0373 24.2993 35.3464H27.3207V35.0213C27.3633 33.7613 26.5973 32.9485 25.4483 32.9485V32.9485ZM25.4483 33.6801C26.0015 33.6801 26.3845 34.0052 26.4696 34.6148H24.3418C24.4269 34.0865 24.8099 33.6801 25.4483 33.6801ZM47.6196 34.9806V31.4854H46.7259V33.5175C46.428 33.1517 46.0025 32.9485 45.4493 32.9485C44.3003 32.9485 43.4066 33.802 43.4066 34.9806C43.4066 36.1593 44.3003 37.0128 45.4493 37.0128C46.045 37.0128 46.4706 36.8095 46.7259 36.4438V36.9315H47.6196V34.9806ZM44.3428 34.9806C44.3428 34.2897 44.8109 33.7207 45.5769 33.7207C46.3004 33.7207 46.811 34.249 46.811 34.9806C46.811 35.6715 46.3004 36.2405 45.5769 36.2405C44.8109 36.1999 44.3428 35.6715 44.3428 34.9806ZM14.469 34.9806V33.0298H13.5753V33.5175C13.2775 33.1517 12.8519 32.9485 12.2987 32.9485C11.1497 32.9485 10.256 33.802 10.256 34.9806C10.256 36.1593 11.1497 37.0128 12.2987 37.0128C12.8945 37.0128 13.32 36.8095 13.5753 36.4438V36.9315H14.469V34.9806ZM11.1497 34.9806C11.1497 34.2897 11.6178 33.7207 12.3838 33.7207C13.1072 33.7207 13.6179 34.249 13.6179 34.9806C13.6179 35.6715 13.1072 36.2405 12.3838 36.2405C11.6178 36.1999 11.1497 35.6715 11.1497 34.9806Z" fill="black"/>
<path d="M31.9166 3.40137H18.5117V26.4051H31.9166V3.40137Z" fill="#FF5F00"/>
<path d="M19.3629 14.9033C19.3629 10.2294 21.6609 6.08388 25.193 3.40147C22.5971 1.45062 19.3203 0.271973 15.7457 0.271973C7.27719 0.271973 0.425781 6.81545 0.425781 14.9033C0.425781 22.9912 7.27719 29.5347 15.7457 29.5347C19.3203 29.5347 22.5971 28.3561 25.193 26.4052C21.6609 23.7635 19.3629 19.5773 19.3629 14.9033Z" fill="#EB001B"/>
<path d="M50.0025 14.9033C50.0025 22.9912 43.1511 29.5347 34.6826 29.5347C31.108 29.5347 27.8312 28.3561 25.2354 26.4052C28.81 23.7228 31.0654 19.5773 31.0654 14.9033C31.0654 10.2294 28.7674 6.08388 25.2354 3.40147C27.8312 1.45062 31.108 0.271973 34.6826 0.271973C43.1511 0.271973 50.0025 6.85609 50.0025 14.9033Z" fill="#F79E1B"/>
</svg>
