<svg width="42" height="31" viewBox="0 0 42 31" fill="none" xmlns="http://www.w3.org/2000/svg">
<path d="M7.82482 30.5307V28.5062C7.82482 27.7301 7.3302 27.224 6.48228 27.224C6.05832 27.224 5.59903 27.359 5.28106 27.7976C5.03375 27.4265 4.68044 27.224 4.15049 27.224C3.79719 27.224 3.44389 27.3252 3.16125 27.6964V27.2915H2.41931V30.5307H3.16125V28.7424C3.16125 28.1688 3.47921 27.8988 3.97384 27.8988C4.46846 27.8988 4.71577 28.2025 4.71577 28.7424V30.5307H5.45771V28.7424C5.45771 28.1688 5.81101 27.8988 6.2703 27.8988C6.76492 27.8988 7.01223 28.2025 7.01223 28.7424V30.5307H7.82482ZM18.8125 27.2915H17.6113V26.313H16.8693V27.2915H16.1981V27.9326H16.8693V29.4172C16.8693 30.1596 17.1873 30.5982 18.0352 30.5982C18.3532 30.5982 18.7065 30.497 18.9538 30.362L18.7418 29.7547C18.5299 29.8896 18.2826 29.9234 18.1059 29.9234C17.7526 29.9234 17.6113 29.7209 17.6113 29.3835V27.9326H18.8125V27.2915ZM25.1013 27.224C24.6773 27.224 24.3947 27.4265 24.218 27.6964V27.2915H23.4761V30.5307H24.218V28.7087C24.218 28.1688 24.4653 27.8651 24.9246 27.8651C25.0659 27.8651 25.2426 27.8988 25.3839 27.9326L25.5959 27.2577C25.4546 27.224 25.2426 27.224 25.1013 27.224ZM15.5975 27.5614C15.2442 27.3252 14.7495 27.224 14.2196 27.224C13.3717 27.224 12.8064 27.6289 12.8064 28.27C12.8064 28.8099 13.2303 29.1136 13.9723 29.2148L14.3256 29.2485C14.7142 29.316 14.9262 29.4172 14.9262 29.586C14.9262 29.8222 14.6435 29.9909 14.1489 29.9909C13.6543 29.9909 13.2657 29.8222 13.0184 29.6534L12.6651 30.1933C13.0537 30.4633 13.5836 30.5982 14.1136 30.5982C15.1028 30.5982 15.6681 30.1596 15.6681 29.5522C15.6681 28.9786 15.2088 28.6749 14.5022 28.5737L14.1489 28.54C13.8309 28.5062 13.5836 28.4387 13.5836 28.2363C13.5836 28.0001 13.831 27.8651 14.2196 27.8651C14.6435 27.8651 15.0675 28.0338 15.2795 28.135L15.5975 27.5614ZM35.3117 27.224C34.8877 27.224 34.6051 27.4265 34.4284 27.6964V27.2915H33.6865V30.5307H34.4284V28.7087C34.4284 28.1688 34.6758 27.8651 35.135 27.8651C35.2764 27.8651 35.453 27.8988 35.5943 27.9326L35.8063 27.2577C35.665 27.224 35.453 27.224 35.3117 27.224ZM25.8432 28.9111C25.8432 29.8896 26.5498 30.5982 27.645 30.5982C28.1397 30.5982 28.493 30.497 28.8463 30.2271L28.493 29.6534C28.2103 29.8559 27.9277 29.9571 27.6097 29.9571C27.0091 29.9571 26.5851 29.5522 26.5851 28.9111C26.5851 28.3037 27.0091 27.8988 27.6097 27.8651C27.9277 27.8651 28.2103 27.9663 28.493 28.1688L28.8463 27.5952C28.493 27.3252 28.1397 27.224 27.645 27.224C26.5498 27.224 25.8432 27.9326 25.8432 28.9111ZM32.6973 28.9111V27.2915H31.9553V27.6964C31.708 27.3927 31.3547 27.224 30.8954 27.224C29.9415 27.224 29.1996 27.9326 29.1996 28.9111C29.1996 29.8896 29.9415 30.5982 30.8954 30.5982C31.3901 30.5982 31.7434 30.4295 31.9553 30.1258V30.5307H32.6973V28.9111ZM29.9768 28.9111C29.9768 28.3375 30.3655 27.8651 31.0014 27.8651C31.602 27.8651 32.026 28.3037 32.026 28.9111C32.026 29.4847 31.602 29.9571 31.0014 29.9571C30.3655 29.9234 29.9768 29.4847 29.9768 28.9111ZM21.109 27.224C20.1197 27.224 19.4131 27.8988 19.4131 28.9111C19.4131 29.9234 20.1197 30.5982 21.1443 30.5982C21.6389 30.5982 22.1335 30.4633 22.5222 30.1596L22.1689 29.6534C21.8862 29.8559 21.5329 29.9909 21.1796 29.9909C20.7203 29.9909 20.261 29.7884 20.155 29.2148H22.6635V28.9449C22.6988 27.8988 22.0629 27.224 21.109 27.224ZM21.109 27.8314C21.5683 27.8314 21.8862 28.1013 21.9569 28.6074H20.1904C20.261 28.1688 20.579 27.8314 21.109 27.8314ZM39.516 28.9111V26.0093H38.7741V27.6964C38.5267 27.3927 38.1734 27.224 37.7141 27.224C36.7602 27.224 36.0183 27.9326 36.0183 28.9111C36.0183 29.8896 36.7602 30.5982 37.7141 30.5982C38.2088 30.5982 38.5621 30.4295 38.7741 30.1258V30.5307H39.516V28.9111ZM36.7956 28.9111C36.7956 28.3375 37.1842 27.8651 37.8201 27.8651C38.4207 27.8651 38.8447 28.3037 38.8447 28.9111C38.8447 29.4847 38.4207 29.9571 37.8201 29.9571C37.1842 29.9234 36.7956 29.4847 36.7956 28.9111ZM11.9938 28.9111V27.2915H11.2519V27.6964C11.0045 27.3927 10.6512 27.224 10.1919 27.224C9.23803 27.224 8.49609 27.9326 8.49609 28.9111C8.49609 29.8896 9.23803 30.5982 10.1919 30.5982C10.6866 30.5982 11.0399 30.4295 11.2519 30.1258V30.5307H11.9938V28.9111ZM9.23803 28.9111C9.23803 28.3375 9.62666 27.8651 10.2626 27.8651C10.8632 27.8651 11.2872 28.3037 11.2872 28.9111C11.2872 29.4847 10.8632 29.9571 10.2626 29.9571C9.62666 29.9234 9.23803 29.4847 9.23803 28.9111Z" fill="white"/>
<path d="M26.4794 2.69336H15.3503V21.7915H26.4794V2.69336Z" fill="#FF5F00"/>
<path d="M16.0568 12.2422C16.0568 8.36184 17.9647 4.92013 20.8971 2.69313C18.7419 1.0735 16.0215 0.0949707 13.0538 0.0949707C6.02306 0.0949707 0.3349 5.52748 0.3349 12.2422C0.3349 18.9569 6.02306 24.3894 13.0538 24.3894C16.0215 24.3894 18.7419 23.4109 20.8971 21.7913C17.9647 19.598 16.0568 16.1226 16.0568 12.2422Z" fill="#EB001B"/>
<path d="M41.4946 12.2422C41.4946 18.9569 35.8064 24.3894 28.7757 24.3894C25.808 24.3894 23.0876 23.4109 20.9324 21.7913C23.9002 19.5643 25.7727 16.1226 25.7727 12.2422C25.7727 8.36184 23.8648 4.92013 20.9324 2.69313C23.0876 1.0735 25.808 0.0949707 28.7757 0.0949707C35.8064 0.0949707 41.4946 5.56123 41.4946 12.2422Z" fill="#F79E1B"/>
</svg>
