<svg width="22" height="23" viewBox="0 0 22 23" fill="none" xmlns="http://www.w3.org/2000/svg">
<path d="M20.7778 15.4126C19.2561 15.4126 17.7833 15.1681 16.4145 14.7159C15.9928 14.5814 15.51 14.6792 15.1739 15.0154L12.4851 17.7104C9.02006 15.9504 6.19059 13.1209 4.43059 9.66203L7.11946 6.9609C7.45559 6.62477 7.55333 6.14203 7.41893 5.72036C6.96672 4.35149 6.72226 2.87869 6.72226 1.35703C6.7222 0.678635 6.17833 0.134766 5.5 0.134766H1.2222C0.55 0.134766 0 0.678635 0 1.35697C0 12.8336 9.30113 22.1348 20.7778 22.1348C21.4561 22.1348 22 21.5909 22 20.9126V16.6348C22 15.9564 21.4561 15.4126 20.7778 15.4126Z" fill="#666666"/>
</svg>
