<svg width="181" height="52" viewBox="0 0 181 52" fill="none" xmlns="http://www.w3.org/2000/svg">
<path d="M16.5338 24.7681C14.6006 26.7009 11.4558 26.7009 9.52265 24.7681L3.36398 18.6137V8.50545L16.893 22.0318L19.2736 19.6547L0 0.384766V34.8733L14.5763 49.4467C16.1471 51.0173 18.2386 51.8848 20.4609 51.8848C22.6833 51.8848 24.7747 51.0203 26.3456 49.4467L40.7209 35.0742V0.600871L16.5338 24.7681ZM23.968 47.0665C23.0303 48.004 21.7852 48.5184 20.4609 48.5184C19.1367 48.5184 17.8915 48.004 16.9539 47.0665L3.36398 33.4793V23.371L22.0105 42.0139C22.1962 42.2026 22.391 42.3731 22.5889 42.5405C22.6437 42.5862 22.6985 42.6257 22.7533 42.6683C22.9086 42.7901 23.0669 42.9088 23.2282 43.0184C23.283 43.0549 23.3348 43.0914 23.3896 43.1249C23.5783 43.2466 23.7732 43.3623 23.971 43.4688C23.9954 43.481 24.0167 43.4932 24.038 43.5054C24.7413 43.8737 25.4902 44.1354 26.2726 44.2876C26.2939 44.2906 26.3121 44.2937 26.3334 44.2998C26.4461 44.3211 26.5557 44.3454 26.6683 44.3637L23.9619 47.0696L23.968 47.0665ZM37.357 23.5719V33.6802C37.357 33.6802 31.1557 39.8651 31.0278 39.9716C31.0126 39.9838 30.9974 39.9929 30.9821 40.0051C29.3078 41.3382 26.9636 41.4326 25.1949 40.282C25.1857 40.276 25.1766 40.2729 25.1675 40.2668C25.0548 40.1907 24.9452 40.1086 24.8356 40.0233C24.8113 40.0051 24.7869 39.9898 24.7656 39.9716C24.6408 39.8711 24.5221 39.7616 24.4064 39.6489C24.4003 39.6429 24.3973 39.6398 24.3912 39.6368L21.6848 36.9309C21.77 36.9187 21.8522 36.8974 21.9344 36.8852C22.0227 36.87 22.114 36.8548 22.2023 36.8365C22.3789 36.8 22.5524 36.7544 22.7259 36.7057C22.7929 36.6874 22.8599 36.6722 22.9268 36.6509C23.1613 36.5778 23.3957 36.4956 23.621 36.4013C23.6727 36.38 23.7214 36.3556 23.7732 36.3313C23.9497 36.2552 24.1263 36.173 24.2968 36.0847C24.3729 36.0452 24.449 36.0026 24.5251 35.9599C24.6682 35.8778 24.8113 35.7925 24.9513 35.7043C25.0274 35.6556 25.1035 35.6069 25.1766 35.5551C25.3197 35.4577 25.4567 35.3512 25.5937 35.2447C25.6576 35.196 25.7185 35.1473 25.7824 35.0986C25.9773 34.9372 26.166 34.7668 26.3456 34.5872L37.3539 23.5811L37.357 23.5719ZM23.968 32.2009C23.0303 33.1384 21.7852 33.6528 20.4609 33.6528C19.1367 33.6528 17.8915 33.1384 16.9539 32.2009L14.2444 29.492C15.9523 29.2424 17.5993 28.4602 18.9114 27.1483L37.3539 8.72156V18.8176L23.965 32.204L23.968 32.2009Z" fill="url(#paint0_linear_188_235)"/>
<path d="M16.5338 24.7681C14.6006 26.7009 11.4558 26.7009 9.52265 24.7681L3.36398 18.6137V8.50545L16.893 22.0318L19.2736 19.6547L0 0.384766V34.8733L14.5763 49.4467C16.1471 51.0173 18.2386 51.8848 20.4609 51.8848C22.6833 51.8848 24.7747 51.0203 26.3456 49.4467L40.7209 35.0742V0.600871L16.5338 24.7681ZM23.968 47.0665C23.0303 48.004 21.7852 48.5184 20.4609 48.5184C19.1367 48.5184 17.8915 48.004 16.9539 47.0665L3.36398 33.4793V23.371L22.0105 42.0139C22.1962 42.2026 22.391 42.3731 22.5889 42.5405C22.6437 42.5862 22.6985 42.6257 22.7533 42.6683C22.9086 42.7901 23.0669 42.9088 23.2282 43.0184C23.283 43.0549 23.3348 43.0914 23.3896 43.1249C23.5783 43.2466 23.7732 43.3623 23.971 43.4688C23.9954 43.481 24.0167 43.4932 24.038 43.5054C24.7413 43.8737 25.4902 44.1354 26.2726 44.2876C26.2939 44.2906 26.3121 44.2937 26.3334 44.2998C26.4461 44.3211 26.5557 44.3454 26.6683 44.3637L23.9619 47.0696L23.968 47.0665ZM37.357 23.5719V33.6802C37.357 33.6802 31.1557 39.8651 31.0278 39.9716C31.0126 39.9838 30.9974 39.9929 30.9821 40.0051C29.3078 41.3382 26.9636 41.4326 25.1949 40.282C25.1857 40.276 25.1766 40.2729 25.1675 40.2668C25.0548 40.1907 24.9452 40.1086 24.8356 40.0233C24.8113 40.0051 24.7869 39.9898 24.7656 39.9716C24.6408 39.8711 24.5221 39.7616 24.4064 39.6489C24.4003 39.6429 24.3973 39.6398 24.3912 39.6368L21.6848 36.9309C21.77 36.9187 21.8522 36.8974 21.9344 36.8852C22.0227 36.87 22.114 36.8548 22.2023 36.8365C22.3789 36.8 22.5524 36.7544 22.7259 36.7057C22.7929 36.6874 22.8599 36.6722 22.9268 36.6509C23.1613 36.5778 23.3957 36.4956 23.621 36.4013C23.6727 36.38 23.7214 36.3556 23.7732 36.3313C23.9497 36.2552 24.1263 36.173 24.2968 36.0847C24.3729 36.0452 24.449 36.0026 24.5251 35.9599C24.6682 35.8778 24.8113 35.7925 24.9513 35.7043C25.0274 35.6556 25.1035 35.6069 25.1766 35.5551C25.3197 35.4577 25.4567 35.3512 25.5937 35.2447C25.6576 35.196 25.7185 35.1473 25.7824 35.0986C25.9773 34.9372 26.166 34.7668 26.3456 34.5872L37.3539 23.5811L37.357 23.5719ZM23.968 32.2009C23.0303 33.1384 21.7852 33.6528 20.4609 33.6528C19.1367 33.6528 17.8915 33.1384 16.9539 32.2009L14.2444 29.492C15.9523 29.2424 17.5993 28.4602 18.9114 27.1483L37.3539 8.72156V18.8176L23.965 32.204L23.968 32.2009Z" fill="url(#paint1_linear_188_235)"/>
<path d="M16.5338 24.7681C14.6006 26.7009 11.4558 26.7009 9.52265 24.7681L3.36398 18.6137V8.50545L16.893 22.0318L19.2736 19.6547L0 0.384766V34.8733L14.5763 49.4467C16.1471 51.0173 18.2386 51.8848 20.4609 51.8848C22.6833 51.8848 24.7747 51.0203 26.3456 49.4467L40.7209 35.0742V0.600871L16.5338 24.7681ZM23.968 47.0665C23.0303 48.004 21.7852 48.5184 20.4609 48.5184C19.1367 48.5184 17.8915 48.004 16.9539 47.0665L3.36398 33.4793V23.371L22.0105 42.0139C22.1962 42.2026 22.391 42.3731 22.5889 42.5405C22.6437 42.5862 22.6985 42.6257 22.7533 42.6683C22.9086 42.7901 23.0669 42.9088 23.2282 43.0184C23.283 43.0549 23.3348 43.0914 23.3896 43.1249C23.5783 43.2466 23.7732 43.3623 23.971 43.4688C23.9954 43.481 24.0167 43.4932 24.038 43.5054C24.7413 43.8737 25.4902 44.1354 26.2726 44.2876C26.2939 44.2906 26.3121 44.2937 26.3334 44.2998C26.4461 44.3211 26.5557 44.3454 26.6683 44.3637L23.9619 47.0696L23.968 47.0665ZM37.357 23.5719V33.6802C37.357 33.6802 31.1557 39.8651 31.0278 39.9716C31.0126 39.9838 30.9974 39.9929 30.9821 40.0051C29.3078 41.3382 26.9636 41.4326 25.1949 40.282C25.1857 40.276 25.1766 40.2729 25.1675 40.2668C25.0548 40.1907 24.9452 40.1086 24.8356 40.0233C24.8113 40.0051 24.7869 39.9898 24.7656 39.9716C24.6408 39.8711 24.5221 39.7616 24.4064 39.6489C24.4003 39.6429 24.3973 39.6398 24.3912 39.6368L21.6848 36.9309C21.77 36.9187 21.8522 36.8974 21.9344 36.8852C22.0227 36.87 22.114 36.8548 22.2023 36.8365C22.3789 36.8 22.5524 36.7544 22.7259 36.7057C22.7929 36.6874 22.8599 36.6722 22.9268 36.6509C23.1613 36.5778 23.3957 36.4956 23.621 36.4013C23.6727 36.38 23.7214 36.3556 23.7732 36.3313C23.9497 36.2552 24.1263 36.173 24.2968 36.0847C24.3729 36.0452 24.449 36.0026 24.5251 35.9599C24.6682 35.8778 24.8113 35.7925 24.9513 35.7043C25.0274 35.6556 25.1035 35.6069 25.1766 35.5551C25.3197 35.4577 25.4567 35.3512 25.5937 35.2447C25.6576 35.196 25.7185 35.1473 25.7824 35.0986C25.9773 34.9372 26.166 34.7668 26.3456 34.5872L37.3539 23.5811L37.357 23.5719ZM23.968 32.2009C23.0303 33.1384 21.7852 33.6528 20.4609 33.6528C19.1367 33.6528 17.8915 33.1384 16.9539 32.2009L14.2444 29.492C15.9523 29.2424 17.5993 28.4602 18.9114 27.1483L37.3539 8.72156V18.8176L23.965 32.204L23.968 32.2009Z" fill="#13B3F0"/>
<path d="M62.039 25.5358V7.70581H55.0928V5.17529H71.8506V7.70581H64.9044V25.5358H62.039Z" fill="black"/>
<path d="M75.7264 25.5358V5.17529H83.6278C85.4029 5.17529 86.9176 5.45646 88.1718 6.0188C89.426 6.58114 90.3907 7.39555 91.0661 8.46205C91.7414 9.52856 92.0791 10.7987 92.0791 12.2724C92.0791 13.7461 91.7414 15.0162 91.0661 16.0827C90.3907 17.1298 89.426 17.9345 88.1718 18.4969C86.9176 19.0592 85.4029 19.3404 83.6278 19.3404H77.3183L78.6207 18.0024V25.5358H75.7264ZM89.2716 25.5358L84.1198 18.1478H87.2167L92.4264 25.5358H89.2716ZM78.6207 18.2933L77.3183 16.868H83.541C85.3933 16.868 86.7922 16.4705 87.7377 15.6755C88.7024 14.8611 89.1848 13.7267 89.1848 12.2724C89.1848 10.8181 88.7024 9.69338 87.7377 8.89835C86.7922 8.10332 85.3933 7.70581 83.541 7.70581H77.3183L78.6207 6.25149V18.2933Z" fill="black"/>
<path d="M94.4108 25.5358L103.586 5.17529H106.451L115.655 25.5358H112.616L104.425 6.80413H105.583L97.3919 25.5358H94.4108ZM98.318 20.4456L99.0995 18.1187H110.503L111.342 20.4456H98.318Z" fill="black"/>
<path d="M119.401 25.5358V5.17529H127.939C130.1 5.17529 132 5.60189 133.64 6.45509C135.3 7.30829 136.583 8.50084 137.49 10.0327C138.416 11.5646 138.879 13.3389 138.879 15.3555C138.879 17.3722 138.416 19.1465 137.49 20.6783C136.583 22.2102 135.3 23.4028 133.64 24.256C132 25.1092 130.1 25.5358 127.939 25.5358H119.401ZM122.295 23.0052H127.765C129.444 23.0052 130.891 22.6853 132.106 22.0454C133.341 21.4055 134.296 20.5135 134.972 19.3694C135.647 18.206 135.985 16.868 135.985 15.3555C135.985 13.8236 135.647 12.4857 134.972 11.3416C134.296 10.1975 133.341 9.30556 132.106 8.66566C130.891 8.02576 129.444 7.70581 127.765 7.70581H122.295V23.0052Z" fill="black"/>
<path d="M146.67 13.9594H157.089V16.4317H146.67V13.9594ZM146.93 23.0052H158.739V25.5358H144.036V5.17529H158.333V7.70581H146.93V23.0052Z" fill="black"/>
<path d="M164.149 25.5358V5.17529H172.05C173.825 5.17529 175.34 5.45646 176.594 6.0188C177.848 6.58114 178.813 7.39555 179.488 8.46205C180.164 9.52856 180.501 10.7987 180.501 12.2724C180.501 13.7461 180.164 15.0162 179.488 16.0827C178.813 17.1298 177.848 17.9345 176.594 18.4969C175.34 19.0592 173.825 19.3404 172.05 19.3404H165.74L167.043 18.0024V25.5358H164.149ZM177.694 25.5358L172.542 18.1478H175.639L180.849 25.5358H177.694ZM167.043 18.2933L165.74 16.868H171.963C173.816 16.868 175.214 16.4705 176.16 15.6755C177.125 14.8611 177.607 13.7267 177.607 12.2724C177.607 10.8181 177.125 9.69338 176.16 8.89835C175.214 8.10332 173.816 7.70581 171.963 7.70581H165.74L167.043 6.25149V18.2933Z" fill="black"/>
<path d="M61.8672 49.4084V40.8497H58.6855V39.9885H66.0058V40.8497H62.8242V49.4084H61.8672Z" fill="black"/>
<path d="M86.9349 49.4084V39.9885H90.3234C91.0908 39.9885 91.7504 40.1185 92.3022 40.3787C92.8541 40.6299 93.2765 40.9977 93.5697 41.4822C93.8715 41.9577 94.0224 42.5363 94.0224 43.2181C94.0224 43.882 93.8715 44.4562 93.5697 44.9406C93.2765 45.4161 92.8541 45.7839 92.3022 46.0441C91.7504 46.2953 91.0908 46.4209 90.3234 46.4209H87.4651L87.8919 45.9634V49.4084H86.9349ZM93.117 49.4084L90.789 45.9903H91.8237L94.1646 49.4084H93.117ZM87.8919 46.0441L87.4651 45.5731H90.2976C91.2029 45.5731 91.8884 45.3668 92.354 44.9541C92.8282 44.5414 93.0653 43.9628 93.0653 43.2181C93.0653 42.4645 92.8282 41.8814 92.354 41.4687C91.8884 41.056 91.2029 40.8497 90.2976 40.8497H87.4651L87.8919 40.3787V46.0441Z" fill="black"/>
<path d="M119.329 49.4891C118.173 49.4891 117.264 49.1437 116.6 48.4529C115.936 47.7621 115.604 46.7394 115.604 45.3847V39.9885H116.561V45.3443C116.561 46.4568 116.802 47.2777 117.285 47.807C117.768 48.3363 118.449 48.6009 119.329 48.6009C120.217 48.6009 120.902 48.3363 121.385 47.807C121.868 47.2777 122.109 46.4568 122.109 45.3443V39.9885H123.04V45.3847C123.04 46.7394 122.708 47.7621 122.045 48.4529C121.389 49.1437 120.484 49.4891 119.329 49.4891Z" fill="black"/>
<path d="M147.821 49.4891C147.148 49.4891 146.501 49.377 145.881 49.1527C145.268 48.9194 144.794 48.6234 144.458 48.2645L144.833 47.4975C145.152 47.8204 145.579 48.0941 146.113 48.3183C146.657 48.5337 147.226 48.6413 147.821 48.6413C148.39 48.6413 148.851 48.5695 149.205 48.426C149.567 48.2735 149.83 48.0716 149.993 47.8204C150.166 47.5692 150.252 47.2911 150.252 46.9861C150.252 46.6183 150.149 46.3222 149.942 46.0979C149.743 45.8737 149.48 45.6987 149.153 45.5731C148.825 45.4385 148.463 45.3219 148.066 45.2232C147.67 45.1246 147.273 45.0214 146.877 44.9137C146.48 44.7971 146.113 44.6446 145.777 44.4562C145.45 44.2678 145.182 44.0211 144.975 43.7161C144.777 43.4021 144.678 42.9939 144.678 42.4915C144.678 42.025 144.794 41.5988 145.027 41.213C145.269 40.8183 145.635 40.5043 146.126 40.2711C146.618 40.0288 147.247 39.9077 148.015 39.9077C148.523 39.9077 149.028 39.984 149.528 40.1365C150.028 40.28 150.459 40.4819 150.821 40.742L150.498 41.536C150.11 41.2669 149.696 41.0695 149.256 40.9439C148.825 40.8183 148.407 40.7555 148.002 40.7555C147.459 40.7555 147.01 40.8318 146.657 40.9843C146.303 41.1368 146.04 41.3431 145.868 41.6033C145.704 41.8545 145.622 42.1416 145.622 42.4645C145.622 42.8324 145.721 43.1284 145.919 43.3527C146.126 43.577 146.394 43.7519 146.721 43.8775C147.058 44.0031 147.424 44.1153 147.821 44.214C148.217 44.3126 148.61 44.4203 148.998 44.5369C149.394 44.6536 149.756 44.8061 150.084 44.9945C150.42 45.1739 150.688 45.4161 150.886 45.7211C151.093 46.0262 151.196 46.4254 151.196 46.9188C151.196 47.3764 151.076 47.8025 150.834 48.1972C150.593 48.583 150.222 48.897 149.722 49.1392C149.23 49.3725 148.597 49.4891 147.821 49.4891Z" fill="black"/>
<path d="M174.314 49.4084V40.8497H171.133V39.9885H178.453V40.8497H175.271V49.4084H174.314Z" fill="black"/>
<defs>
<linearGradient id="paint0_linear_188_235" x1="-3.14717e-07" y1="34.8179" x2="40.7209" y2="7.27139" gradientUnits="userSpaceOnUse">
<stop stop-color="#0D3ED1"/>
<stop offset="1" stop-color="#0BC6E3"/>
</linearGradient>
<linearGradient id="paint1_linear_188_235" x1="7.06383" y1="40.6247" x2="27.5732" y2="-2.81916" gradientUnits="userSpaceOnUse">
<stop stop-color="#2ABEE2"/>
<stop offset="1" stop-color="#27CBC0"/>
</linearGradient>
</defs>
</svg>
