<svg width="53" height="53" viewBox="0 0 53 53" fill="none" xmlns="http://www.w3.org/2000/svg">
<rect width="53" height="53" rx="11" fill="#F2F5F8"/>
<g clip-path="url(#clip0_295_179)">
<path d="M26.5 15C21.262 15 17.0001 19.1273 17.0001 24.1943C16.9657 31.606 26.139 37.7516 26.5 38C26.5 38 36.0343 31.606 35.9999 24.2C35.9999 19.1274 31.738 15 26.5 15ZM26.5 28.8C23.8757 28.8 21.75 26.7415 21.75 24.2C21.75 21.6585 23.8757 19.6 26.5 19.6C29.1243 19.6 31.25 21.6585 31.25 24.2C31.25 26.7415 29.1243 28.8 26.5 28.8Z" fill="#13B3F0"/>
</g>
<defs>
<clipPath id="clip0_295_179">
<rect width="23" height="23" fill="white" transform="translate(15 15)"/>
</clipPath>
</defs>
</svg>
