<svg width="53" height="53" viewBox="0 0 53 53" fill="none" xmlns="http://www.w3.org/2000/svg">
<rect width="53" height="53" rx="11" fill="#F2F5F8"/>
<g clip-path="url(#clip0_295_2)">
<path d="M38 22V32.6306C38 33.49 37.6638 34.317 37.0601 34.9423C36.4564 35.5676 35.6309 35.944 34.7524 35.9944L34.55 36H18.45C17.57 36 16.7233 35.6717 16.083 35.0821C15.4427 34.4925 15.0574 33.6862 15.0058 32.8282L15 32.6306V22L25.8617 29.0724L25.9951 29.1466C26.1524 29.2216 26.325 29.2606 26.5 29.2606C26.675 29.2606 26.8476 29.2216 27.0048 29.1466L27.1383 29.0724L38 22Z" fill="#13B3F0"/>
<path d="M34.0586 18C35.3019 18 36.3922 18.6579 37 19.6472L26 27L15 19.6472C15.2886 19.1771 15.6852 18.7831 16.1566 18.4979C16.6281 18.2128 17.1607 18.0449 17.71 18.0081L17.9414 18H34.0586Z" fill="#13B3F0"/>
</g>
<defs>
<clipPath id="clip0_295_2">
<rect width="23" height="23" fill="white" transform="translate(15 15)"/>
</clipPath>
</defs>
</svg>
