<svg width="53" height="53" viewBox="0 0 53 53" fill="none" xmlns="http://www.w3.org/2000/svg">
<rect width="53" height="53" rx="11" fill="#F2F5F8"/>
<g clip-path="url(#clip0_291_626)">
<path d="M38 36.1025V36.85C38 37.155 37.8788 37.4475 37.6632 37.6632C37.4475 37.8788 37.155 38 36.85 38H34.55C29.365 38 24.3924 35.9403 20.7261 32.2739C17.0597 28.6076 15 23.635 15 18.45L15 16.15C15 15.845 15.1212 15.5525 15.3368 15.3368C15.5525 15.1212 15.845 15 16.15 15H20.75C21.055 15 21.3475 15.1212 21.5632 15.3368C21.7788 15.5525 21.9 15.845 21.9 16.15V20.75C21.9 21.394 21.5435 22.2565 21.095 22.705L18.634 25.166C20.382 29.306 23.694 32.618 27.834 34.366L30.272 31.928C30.732 31.468 31.5945 31.1115 32.227 31.1115H36.85C37.153 31.1145 37.4426 31.237 37.6557 31.4524C37.8689 31.6677 37.9885 31.9585 37.9885 32.2615V36.114L38 36.1025Z" fill="#13B3F0"/>
</g>
<defs>
<clipPath id="clip0_291_626">
<rect width="23" height="23" fill="white" transform="translate(15 15)"/>
</clipPath>
</defs>
</svg>
