<svg width="61" height="84" viewBox="0 0 61 84" fill="none" xmlns="http://www.w3.org/2000/svg">
<path fill-rule="evenodd" clip-rule="evenodd" d="M44.3952 22.5591L44.3855 37.5624C45.2815 37.4907 48.0025 35.6575 49.0256 35.0796C50.3493 34.3317 52.1182 33.3135 53.504 32.5053L53.4943 27.7653C53.089 27.3429 44.9816 22.6508 44.3952 22.5591Z" fill="#4F89FF"/>
<path fill-rule="evenodd" clip-rule="evenodd" d="M17.134 27.5969C18.4507 27.2376 24.3043 23.2684 26.2224 22.5089L26.2114 12.9499L19.5754 9.08516C18.894 8.68864 17.8006 7.91728 17.1234 7.88037L17.134 27.5969Z" fill="#4F89FF"/>
<path fill-rule="evenodd" clip-rule="evenodd" d="M17.134 27.5968C15.9435 27.1843 9.0519 22.7395 8.00009 22.5307L8.02806 47.7806C8.63864 47.6423 16.6827 42.9493 17.1364 42.5806L17.134 27.5968Z" fill="#4F89FF"/>
<path fill-rule="evenodd" clip-rule="evenodd" d="M35.268 27.6162C36.0587 27.414 38.6999 25.7385 39.8162 25.0893C40.6515 24.6035 43.7323 22.7105 44.3956 22.5591L44.4009 5.38459C44.1334 4.74263 42.9541 4.29111 42.2629 3.88907C41.4991 3.44499 40.7489 3.03705 39.9444 2.56746C38.9211 1.97002 36.0256 0.139247 35.2752 -3.05176e-05L35.268 27.6162Z" fill="#4F89FF"/>
<path fill-rule="evenodd" clip-rule="evenodd" d="M35.2677 27.6162C33.7201 26.8344 32.213 25.8528 30.7443 25.0187C30.0068 24.5999 29.2781 24.2001 28.5461 23.7665C27.8196 23.3359 27.0099 22.7802 26.2092 22.4908L26.2096 52.8954C26.7414 52.7219 34.7862 48.1509 35.1992 47.7325C35.4386 46.9124 35.4245 29.5507 35.2677 27.6162Z" fill="#4F89FF"/>
<path d="M18.304 60.75C18.356 60.75 18.382 60.802 18.382 60.906C18.382 61.01 18.356 61.062 18.304 61.062C17.576 61.062 17.0473 61.2613 16.718 61.66C16.3887 62.0587 16.224 62.7087 16.224 63.61V77.312C16.224 77.3467 16.1807 77.3727 16.094 77.39C16.0073 77.4073 15.9467 77.3987 15.912 77.364L3.952 62.882L3.718 62.622V74.166C3.718 75.0673 3.874 75.7173 4.186 76.116C4.51533 76.4973 5.03533 76.688 5.746 76.688C5.798 76.688 5.824 76.74 5.824 76.844C5.824 76.948 5.798 77 5.746 77C5.31267 77 4.98333 76.9913 4.758 76.974L3.458 76.948L2.132 76.974C1.88933 76.9913 1.534 77 1.066 77C1.03133 77 1.014 76.948 1.014 76.844C1.014 76.74 1.03133 76.688 1.066 76.688C1.81133 76.688 2.34 76.4973 2.652 76.116C2.964 75.7173 3.12 75.0673 3.12 74.166V61.998C2.444 61.374 1.75933 61.062 1.066 61.062C1.014 61.062 0.988 61.01 0.988 60.906C0.988 60.802 1.014 60.75 1.066 60.75L2.028 60.776C2.236 60.7933 2.522 60.802 2.886 60.802C3.26733 60.802 3.57933 60.7933 3.822 60.776C4.06467 60.7587 4.25533 60.75 4.394 60.75C4.53267 60.75 4.628 60.7847 4.68 60.854C4.74933 60.906 4.85333 61.036 4.992 61.244C5.2 61.556 5.408 61.842 5.616 62.102L15.626 74.4V63.61C15.626 62.7087 15.47 62.0587 15.158 61.66C14.8633 61.2613 14.3607 61.062 13.65 61.062C13.6153 61.062 13.598 61.01 13.598 60.906C13.598 60.802 13.6153 60.75 13.65 60.75L14.664 60.776C15.184 60.8107 15.6087 60.828 15.938 60.828C16.25 60.828 16.6833 60.8107 17.238 60.776L18.304 60.75ZM29.6806 75.596C29.75 75.596 29.7933 75.6393 29.8106 75.726C29.828 75.7953 29.802 75.8473 29.7326 75.882L27.0546 77.156C26.9853 77.1907 26.916 77.208 26.8466 77.208C26.6213 77.208 26.422 77.0607 26.2486 76.766C26.0753 76.454 25.9626 76.038 25.9106 75.518L24.5586 76.402C24.1253 76.6793 23.744 76.8787 23.4146 77C23.0853 77.1213 22.7386 77.182 22.3746 77.182C21.7333 77.182 21.2306 77.0173 20.8666 76.688C20.52 76.3413 20.3466 75.908 20.3466 75.388C20.3466 74.868 20.5546 74.4173 20.9706 74.036C21.3866 73.6547 22.0713 73.2907 23.0246 72.944L25.8846 71.878V70.11C25.8846 68.1687 25.3386 67.198 24.2466 67.198C23.6573 67.198 23.2066 67.3973 22.8946 67.796C22.6 68.1773 22.4006 68.6193 22.2966 69.122C22.2446 69.434 22.1493 69.694 22.0106 69.902C21.872 70.0927 21.638 70.188 21.3086 70.188C21.0313 70.188 20.8146 70.11 20.6586 69.954C20.52 69.798 20.4506 69.616 20.4506 69.408C20.4506 68.992 20.7193 68.576 21.2566 68.16C21.794 67.744 22.4353 67.3973 23.1806 67.12C23.926 66.8427 24.5933 66.704 25.1826 66.704C25.8933 66.704 26.4306 66.9293 26.7946 67.38C27.1586 67.8307 27.3406 68.4807 27.3406 69.33V74.192C27.3406 74.7987 27.4186 75.2407 27.5746 75.518C27.7306 75.7953 27.9906 75.934 28.3546 75.934C28.684 75.934 29.1086 75.8213 29.6286 75.596H29.6806ZM25.8846 75.154V75.024V72.242L23.4666 73.178C22.9813 73.3687 22.626 73.594 22.4006 73.854C22.1926 74.0967 22.0886 74.3913 22.0886 74.738C22.0886 75.154 22.2186 75.5093 22.4786 75.804C22.756 76.0813 23.1113 76.22 23.5446 76.22C23.8913 76.22 24.3073 76.0813 24.7926 75.804L25.8846 75.154ZM49.0752 76.688C49.1445 76.688 49.1792 76.74 49.1792 76.844C49.1792 76.948 49.1445 77 49.0752 77C48.6765 77 48.3559 76.9913 48.1132 76.974L46.7092 76.948L45.3052 76.974C45.0625 76.9913 44.7419 77 44.3432 77C44.2912 77 44.2652 76.948 44.2652 76.844C44.2652 76.74 44.2912 76.688 44.3432 76.688C44.8112 76.688 45.1579 76.6447 45.3832 76.558C45.6085 76.454 45.7645 76.2807 45.8512 76.038C45.9379 75.778 45.9812 75.3967 45.9812 74.894V70.76C45.9812 69.7373 45.7992 68.9833 45.4352 68.498C45.0712 67.9953 44.5079 67.744 43.7452 67.744C43.2252 67.744 42.6965 67.8913 42.1592 68.186C41.6392 68.4633 41.1539 68.862 40.7032 69.382C40.7205 69.4687 40.7292 69.6073 40.7292 69.798V74.894C40.7292 75.414 40.7725 75.7953 40.8592 76.038C40.9459 76.2807 41.1019 76.454 41.3272 76.558C41.5525 76.6447 41.8992 76.688 42.3672 76.688C42.4192 76.688 42.4452 76.74 42.4452 76.844C42.4452 76.948 42.4192 77 42.3672 77C41.9685 77 41.6479 76.9913 41.4052 76.974L40.0012 76.948L38.5712 76.974C38.3459 76.9913 38.0339 77 37.6352 77C37.5832 77 37.5572 76.948 37.5572 76.844C37.5572 76.74 37.5832 76.688 37.6352 76.688C38.1032 76.688 38.4499 76.6447 38.6752 76.558C38.9005 76.454 39.0479 76.2807 39.1172 76.038C39.2039 75.7953 39.2472 75.414 39.2472 74.894V70.76C39.2472 69.7373 39.0652 68.9833 38.7012 68.498C38.3372 67.9953 37.7825 67.744 37.0372 67.744C36.5172 67.744 35.9972 67.8827 35.4772 68.16C34.9572 68.4373 34.4805 68.8273 34.0472 69.33V74.894C34.0472 75.414 34.0819 75.7953 34.1512 76.038C34.2379 76.2807 34.3939 76.454 34.6192 76.558C34.8445 76.6447 35.1912 76.688 35.6592 76.688C35.7112 76.688 35.7372 76.74 35.7372 76.844C35.7372 76.948 35.7112 77 35.6592 77C35.2605 77 34.9485 76.9913 34.7232 76.974L33.3192 76.948L31.8892 76.974C31.6639 76.9913 31.3519 77 30.9532 77C30.9012 77 30.8752 76.948 30.8752 76.844C30.8752 76.74 30.9012 76.688 30.9532 76.688C31.4212 76.688 31.7679 76.6447 31.9932 76.558C32.2185 76.454 32.3659 76.2807 32.4352 76.038C32.5219 75.7953 32.5652 75.414 32.5652 74.894V69.746C32.5652 69.1567 32.4959 68.732 32.3572 68.472C32.2185 68.212 31.9845 68.082 31.6552 68.082C31.3779 68.082 30.9099 68.212 30.2512 68.472H30.1992C30.1299 68.472 30.0779 68.4373 30.0432 68.368C30.0259 68.2813 30.0519 68.2207 30.1212 68.186L33.1372 66.756L33.2932 66.73C33.4492 66.73 33.6139 66.9293 33.7872 67.328C33.9605 67.7267 34.0472 68.238 34.0472 68.862V68.888C34.6712 68.1253 35.2952 67.5707 35.9192 67.224C36.5432 66.8773 37.1932 66.704 37.8692 66.704C38.6492 66.704 39.2819 66.8947 39.7672 67.276C40.2525 67.6573 40.5559 68.2293 40.6772 68.992C41.3185 68.212 41.9599 67.64 42.6012 67.276C43.2425 66.8947 43.9099 66.704 44.6032 66.704C45.5219 66.704 46.2239 66.9727 46.7092 67.51C47.2119 68.03 47.4632 68.81 47.4632 69.85V74.894C47.4632 75.414 47.4979 75.7953 47.5672 76.038C47.6539 76.2807 47.8099 76.454 48.0352 76.558C48.2605 76.6447 48.6072 76.688 49.0752 76.688ZM58.9473 75.544C58.9993 75.544 59.0426 75.5787 59.0773 75.648C59.1293 75.7 59.1379 75.752 59.1033 75.804C57.9593 76.8093 56.6939 77.312 55.3073 77.312C54.3019 77.312 53.4439 77.078 52.7333 76.61C52.0226 76.142 51.4766 75.5267 51.0953 74.764C50.7313 74.0013 50.5493 73.1867 50.5493 72.32C50.5493 71.2973 50.7919 70.3613 51.2773 69.512C51.7626 68.6453 52.4213 67.9693 53.2533 67.484C54.1026 66.9813 55.0299 66.73 56.0353 66.73C57.0059 66.73 57.7513 66.99 58.2713 67.51C58.7913 68.03 59.0513 68.758 59.0513 69.694C59.0513 69.9367 59.0253 70.11 58.9733 70.214C58.9386 70.318 58.8693 70.37 58.7653 70.37L52.3173 70.396C52.2826 70.7773 52.2653 71.0893 52.2653 71.332C52.2653 72.84 52.6206 74.062 53.3313 74.998C54.0419 75.934 55.0386 76.402 56.3213 76.402C56.8413 76.402 57.2833 76.3327 57.6473 76.194C58.0286 76.0553 58.4533 75.8387 58.9213 75.544H58.9473ZM55.1773 67.25C54.4319 67.25 53.8166 67.5013 53.3313 68.004C52.8459 68.4893 52.5253 69.174 52.3693 70.058L57.3093 69.954C57.3093 69.07 57.1186 68.4027 56.7373 67.952C56.3559 67.484 55.8359 67.25 55.1773 67.25Z" fill="#0C6AF5"/>
</svg>
